<mxfile host="app.diagrams.net" modified="2022-02-23T03:39:05.487Z" agent="5.0 (Macintosh; Intel Mac OS X 10_15_7) AppleWebKit/537.36 (KHTML, like Gecko) Chrome/98.0.4758.102 Safari/537.36" etag="M6wSw1DgwTyUq1dPpOQ8" version="16.6.2" type="github">
  <diagram id="iWA8gPLy4ZEsKYJLe4Qc" name="Page-1">
    <mxGraphModel dx="3028" dy="-740" grid="1" gridSize="10" guides="1" tooltips="1" connect="1" arrows="1" fold="1" page="1" pageScale="1" pageWidth="850" pageHeight="1100" math="0" shadow="0">
      <root>
        <mxCell id="0" />
        <mxCell id="1" parent="0" />
        <mxCell id="mx_xu2pzDGoPMUuX7XrT-1" value="&lt;b style=&quot;font-size: 20px&quot;&gt;&lt;br&gt;1. Employer&lt;br&gt;&lt;br&gt;&lt;/b&gt;" style="rounded=0;whiteSpace=wrap;html=1;fontSize=16;fillColor=#dae8fc;strokeColor=#6c8ebf;" parent="1" vertex="1">
          <mxGeometry x="70" y="2760" width="160" height="120" as="geometry" />
        </mxCell>
        <mxCell id="mx_xu2pzDGoPMUuX7XrT-2" value="&lt;b style=&quot;font-size: 20px;&quot;&gt;4.1 Employer Portal&lt;br style=&quot;font-size: 20px;&quot;&gt;&lt;/b&gt;" style="rounded=0;whiteSpace=wrap;html=1;fontSize=20;fillColor=#fff2cc;strokeColor=#d6b656;" parent="1" vertex="1">
          <mxGeometry x="555" y="2760" width="165" height="120" as="geometry" />
        </mxCell>
        <mxCell id="mx_xu2pzDGoPMUuX7XrT-3" value="" style="endArrow=classic;startArrow=classic;html=1;rounded=0;fontSize=13;exitX=0.997;exitY=0.161;exitDx=0;exitDy=0;exitPerimeter=0;entryX=0.001;entryY=0.154;entryDx=0;entryDy=0;entryPerimeter=0;" parent="1" source="mx_xu2pzDGoPMUuX7XrT-1" target="mx_xu2pzDGoPMUuX7XrT-2" edge="1">
          <mxGeometry width="50" height="50" relative="1" as="geometry">
            <mxPoint x="440" y="2780" as="sourcePoint" />
            <mxPoint x="680" y="2770" as="targetPoint" />
          </mxGeometry>
        </mxCell>
        <mxCell id="mx_xu2pzDGoPMUuX7XrT-4" value="&lt;b style=&quot;font-size: 16px;&quot;&gt;&lt;font style=&quot;font-size: 16px;&quot;&gt;7.1 Authentication&lt;/font&gt;&lt;/b&gt;" style="edgeLabel;html=1;align=center;verticalAlign=middle;resizable=0;points=[];fontSize=16;" parent="mx_xu2pzDGoPMUuX7XrT-3" vertex="1" connectable="0">
          <mxGeometry x="-0.0034" y="-1" relative="1" as="geometry">
            <mxPoint as="offset" />
          </mxGeometry>
        </mxCell>
        <mxCell id="mx_xu2pzDGoPMUuX7XrT-5" value="" style="endArrow=classic;html=1;rounded=0;fontSize=13;exitX=1.008;exitY=0.337;exitDx=0;exitDy=0;entryX=0.008;entryY=0.332;entryDx=0;entryDy=0;exitPerimeter=0;entryPerimeter=0;" parent="1" source="mx_xu2pzDGoPMUuX7XrT-1" target="mx_xu2pzDGoPMUuX7XrT-2" edge="1">
          <mxGeometry width="50" height="50" relative="1" as="geometry">
            <mxPoint x="490" y="2850" as="sourcePoint" />
            <mxPoint x="540" y="2800" as="targetPoint" />
          </mxGeometry>
        </mxCell>
        <mxCell id="mx_xu2pzDGoPMUuX7XrT-6" value="&lt;font style=&quot;font-size: 16px;&quot;&gt;&lt;b style=&quot;font-size: 16px;&quot;&gt;7.2 Verification Request (VR)&lt;/b&gt;&lt;/font&gt;" style="edgeLabel;html=1;align=center;verticalAlign=middle;resizable=0;points=[];fontSize=16;" parent="mx_xu2pzDGoPMUuX7XrT-5" vertex="1" connectable="0">
          <mxGeometry x="-0.0034" relative="1" as="geometry">
            <mxPoint as="offset" />
          </mxGeometry>
        </mxCell>
        <mxCell id="mx_xu2pzDGoPMUuX7XrT-7" value="" style="endArrow=classic;html=1;rounded=0;fontSize=12;exitX=-0.008;exitY=0.577;exitDx=0;exitDy=0;entryX=0.997;entryY=0.58;entryDx=0;entryDy=0;entryPerimeter=0;exitPerimeter=0;" parent="1" source="mx_xu2pzDGoPMUuX7XrT-2" target="mx_xu2pzDGoPMUuX7XrT-1" edge="1">
          <mxGeometry width="50" height="50" relative="1" as="geometry">
            <mxPoint x="640" y="2910" as="sourcePoint" />
            <mxPoint x="690" y="2860" as="targetPoint" />
          </mxGeometry>
        </mxCell>
        <mxCell id="mx_xu2pzDGoPMUuX7XrT-8" value="&lt;b style=&quot;font-size: 16px&quot;&gt;7.15 Credential Status&lt;br style=&quot;font-size: 16px&quot;&gt;&lt;/b&gt;" style="edgeLabel;html=1;align=center;verticalAlign=middle;resizable=0;points=[];fontSize=16;" parent="mx_xu2pzDGoPMUuX7XrT-7" vertex="1" connectable="0">
          <mxGeometry x="0.0114" relative="1" as="geometry">
            <mxPoint as="offset" />
          </mxGeometry>
        </mxCell>
        <mxCell id="mx_xu2pzDGoPMUuX7XrT-9" value="" style="endArrow=classic;html=1;rounded=0;fontSize=12;entryX=0.001;entryY=0.832;entryDx=0;entryDy=0;entryPerimeter=0;exitX=1.006;exitY=0.837;exitDx=0;exitDy=0;exitPerimeter=0;" parent="1" source="mx_xu2pzDGoPMUuX7XrT-1" target="mx_xu2pzDGoPMUuX7XrT-2" edge="1">
          <mxGeometry width="50" height="50" relative="1" as="geometry">
            <mxPoint x="420" y="2930" as="sourcePoint" />
            <mxPoint x="450.0000000000001" y="2850" as="targetPoint" />
          </mxGeometry>
        </mxCell>
        <mxCell id="mx_xu2pzDGoPMUuX7XrT-10" value="&lt;b style=&quot;font-size: 16px&quot;&gt;7.16 Provide CH Feedback&lt;br style=&quot;font-size: 16px&quot;&gt;&lt;/b&gt;" style="edgeLabel;html=1;align=center;verticalAlign=middle;resizable=0;points=[];fontSize=16;" parent="mx_xu2pzDGoPMUuX7XrT-9" vertex="1" connectable="0">
          <mxGeometry x="0.0114" relative="1" as="geometry">
            <mxPoint as="offset" />
          </mxGeometry>
        </mxCell>
        <mxCell id="mx_xu2pzDGoPMUuX7XrT-11" value="" style="endArrow=classic;html=1;rounded=0;fontSize=12;entryX=0;entryY=0.25;entryDx=0;entryDy=0;exitX=1;exitY=0.25;exitDx=0;exitDy=0;" parent="1" source="mx_xu2pzDGoPMUuX7XrT-2" target="mx_xu2pzDGoPMUuX7XrT-13" edge="1">
          <mxGeometry width="50" height="50" relative="1" as="geometry">
            <mxPoint x="955" y="2940" as="sourcePoint" />
            <mxPoint x="975" y="3060" as="targetPoint" />
          </mxGeometry>
        </mxCell>
        <mxCell id="mx_xu2pzDGoPMUuX7XrT-12" value="&lt;b style=&quot;font-size: 16px;&quot;&gt;7.3.1 Store Request&lt;/b&gt;" style="edgeLabel;html=1;align=center;verticalAlign=middle;resizable=0;points=[];fontSize=16;" parent="mx_xu2pzDGoPMUuX7XrT-11" vertex="1" connectable="0">
          <mxGeometry x="-0.0591" y="1" relative="1" as="geometry">
            <mxPoint as="offset" />
          </mxGeometry>
        </mxCell>
        <mxCell id="mx_xu2pzDGoPMUuX7XrT-13" value="&lt;b style=&quot;font-size: 20px;&quot;&gt;5.1 Employer Controller&lt;br style=&quot;font-size: 20px;&quot;&gt;&lt;/b&gt;" style="rounded=0;whiteSpace=wrap;html=1;fontSize=20;fillColor=#e1d5e7;strokeColor=#9673a6;" parent="1" vertex="1">
          <mxGeometry x="1010" y="2760" width="165" height="120" as="geometry" />
        </mxCell>
        <mxCell id="mx_xu2pzDGoPMUuX7XrT-14" value="" style="endArrow=classic;html=1;rounded=0;fontSize=12;exitX=0;exitY=0.5;exitDx=0;exitDy=0;entryX=1;entryY=0.5;entryDx=0;entryDy=0;" parent="1" source="mx_xu2pzDGoPMUuX7XrT-13" target="mx_xu2pzDGoPMUuX7XrT-2" edge="1">
          <mxGeometry width="50" height="50" relative="1" as="geometry">
            <mxPoint x="1025" y="2800" as="sourcePoint" />
            <mxPoint x="815" y="2800" as="targetPoint" />
          </mxGeometry>
        </mxCell>
        <mxCell id="mx_xu2pzDGoPMUuX7XrT-15" value="&lt;b style=&quot;font-size: 16px&quot;&gt;7.14.2 CH Verification&lt;/b&gt;" style="edgeLabel;html=1;align=center;verticalAlign=middle;resizable=0;points=[];fontSize=16;" parent="mx_xu2pzDGoPMUuX7XrT-14" vertex="1" connectable="0">
          <mxGeometry x="0.0217" y="1" relative="1" as="geometry">
            <mxPoint as="offset" />
          </mxGeometry>
        </mxCell>
        <mxCell id="mx_xu2pzDGoPMUuX7XrT-16" value="" style="endArrow=classic;html=1;rounded=0;fontSize=12;exitX=1;exitY=0.75;exitDx=0;exitDy=0;entryX=0;entryY=0.75;entryDx=0;entryDy=0;" parent="1" source="mx_xu2pzDGoPMUuX7XrT-2" target="mx_xu2pzDGoPMUuX7XrT-13" edge="1">
          <mxGeometry width="50" height="50" relative="1" as="geometry">
            <mxPoint x="825" y="2740" as="sourcePoint" />
            <mxPoint x="1035" y="2740" as="targetPoint" />
          </mxGeometry>
        </mxCell>
        <mxCell id="mx_xu2pzDGoPMUuX7XrT-17" value="&lt;b style=&quot;font-size: 16px;&quot;&gt;&lt;br style=&quot;font-size: 16px;&quot;&gt;&lt;/b&gt;" style="edgeLabel;html=1;align=center;verticalAlign=middle;resizable=0;points=[];fontSize=16;" parent="mx_xu2pzDGoPMUuX7XrT-16" vertex="1" connectable="0">
          <mxGeometry x="0.0114" relative="1" as="geometry">
            <mxPoint y="-10" as="offset" />
          </mxGeometry>
        </mxCell>
        <mxCell id="mx_xu2pzDGoPMUuX7XrT-18" value="&lt;b style=&quot;font-size: 16px&quot;&gt;7.17.1 Store Employer Feedback&lt;/b&gt;" style="edgeLabel;html=1;align=center;verticalAlign=middle;resizable=0;points=[];fontSize=16;" parent="mx_xu2pzDGoPMUuX7XrT-16" vertex="1" connectable="0">
          <mxGeometry x="0.047" y="-1" relative="1" as="geometry">
            <mxPoint x="-7" as="offset" />
          </mxGeometry>
        </mxCell>
        <mxCell id="mx_xu2pzDGoPMUuX7XrT-19" value="&lt;b&gt;&lt;br&gt;&lt;/b&gt;" style="rounded=0;whiteSpace=wrap;html=1;fontSize=16;fillColor=#d5e8d4;strokeColor=#82b366;" parent="1" vertex="1">
          <mxGeometry x="1462.5" y="2760" width="165" height="650" as="geometry" />
        </mxCell>
        <mxCell id="mx_xu2pzDGoPMUuX7XrT-20" value="&lt;font style=&quot;font-size: 20px&quot;&gt;&lt;b&gt;6.1 Main Database&lt;/b&gt;&lt;/font&gt;" style="text;html=1;strokeColor=none;fillColor=none;align=center;verticalAlign=middle;whiteSpace=wrap;rounded=0;fontSize=10;" parent="1" vertex="1">
          <mxGeometry x="1450" y="2720" width="190" height="30" as="geometry" />
        </mxCell>
        <mxCell id="mx_xu2pzDGoPMUuX7XrT-21" value="&lt;b&gt;6.1.1 Employer Data&lt;br&gt;&lt;/b&gt;" style="rounded=0;whiteSpace=wrap;html=1;fontSize=16;fillColor=#d5e8d4;strokeColor=#82b366;" parent="1" vertex="1">
          <mxGeometry x="1470" y="2790" width="150" height="120" as="geometry" />
        </mxCell>
        <mxCell id="mx_xu2pzDGoPMUuX7XrT-22" value="&lt;b&gt;6.1.2 Credential Holder Data&lt;br&gt;&lt;/b&gt;" style="rounded=0;whiteSpace=wrap;html=1;fontSize=16;fillColor=#d5e8d4;strokeColor=#82b366;" parent="1" vertex="1">
          <mxGeometry x="1470" y="3010" width="150" height="120" as="geometry" />
        </mxCell>
        <mxCell id="mx_xu2pzDGoPMUuX7XrT-23" value="" style="endArrow=classic;html=1;rounded=0;fontSize=12;exitX=1;exitY=0.25;exitDx=0;exitDy=0;entryX=0.005;entryY=0.05;entryDx=0;entryDy=0;entryPerimeter=0;" parent="1" source="mx_xu2pzDGoPMUuX7XrT-13" target="mx_xu2pzDGoPMUuX7XrT-19" edge="1">
          <mxGeometry width="50" height="50" relative="1" as="geometry">
            <mxPoint x="860" y="2800" as="sourcePoint" />
            <mxPoint x="1380" y="2790" as="targetPoint" />
          </mxGeometry>
        </mxCell>
        <mxCell id="mx_xu2pzDGoPMUuX7XrT-24" value="&lt;b style=&quot;font-size: 16px;&quot;&gt;7.3.1 Store Request&lt;/b&gt;" style="edgeLabel;html=1;align=center;verticalAlign=middle;resizable=0;points=[];fontSize=16;" parent="mx_xu2pzDGoPMUuX7XrT-23" vertex="1" connectable="0">
          <mxGeometry x="-0.0591" y="1" relative="1" as="geometry">
            <mxPoint as="offset" />
          </mxGeometry>
        </mxCell>
        <mxCell id="mx_xu2pzDGoPMUuX7XrT-25" value="&lt;b style=&quot;font-size: 20px;&quot;&gt;5.2 Credential Holder Controller&lt;br style=&quot;font-size: 20px;&quot;&gt;&lt;/b&gt;" style="rounded=0;whiteSpace=wrap;html=1;fontSize=20;fillColor=#e1d5e7;strokeColor=#9673a6;" parent="1" vertex="1">
          <mxGeometry x="1010" y="3000" width="165" height="120" as="geometry" />
        </mxCell>
        <mxCell id="mx_xu2pzDGoPMUuX7XrT-26" value="" style="endArrow=classic;html=1;rounded=0;fontSize=12;entryX=0.5;entryY=0;entryDx=0;entryDy=0;exitX=0.5;exitY=1;exitDx=0;exitDy=0;" parent="1" source="mx_xu2pzDGoPMUuX7XrT-13" target="mx_xu2pzDGoPMUuX7XrT-25" edge="1">
          <mxGeometry width="50" height="50" relative="1" as="geometry">
            <mxPoint x="960" y="2710" as="sourcePoint" />
            <mxPoint x="720" y="2070" as="targetPoint" />
          </mxGeometry>
        </mxCell>
        <mxCell id="mx_xu2pzDGoPMUuX7XrT-27" value="&lt;b&gt;&lt;font style=&quot;font-size: 16px&quot;&gt;7.4 Initialize Consent Process&lt;/font&gt;&lt;/b&gt;" style="edgeLabel;html=1;align=center;verticalAlign=middle;resizable=0;points=[];fontSize=12;" parent="mx_xu2pzDGoPMUuX7XrT-26" vertex="1" connectable="0">
          <mxGeometry x="0.0114" relative="1" as="geometry">
            <mxPoint as="offset" />
          </mxGeometry>
        </mxCell>
        <mxCell id="mx_xu2pzDGoPMUuX7XrT-28" value="&lt;b style=&quot;font-size: 20px;&quot;&gt;4.2 Credential Holder Portal&lt;br style=&quot;font-size: 20px;&quot;&gt;&lt;/b&gt;" style="rounded=0;whiteSpace=wrap;html=1;fontSize=20;fillColor=#fff2cc;strokeColor=#d6b656;" parent="1" vertex="1">
          <mxGeometry x="560" y="3000" width="160" height="120" as="geometry" />
        </mxCell>
        <mxCell id="mx_xu2pzDGoPMUuX7XrT-29" value="&lt;b style=&quot;font-size: 20px;&quot;&gt;&lt;font style=&quot;font-size: 20px;&quot;&gt;2. Certificate Holder&lt;/font&gt;&lt;br style=&quot;font-size: 20px;&quot;&gt;&lt;/b&gt;" style="rounded=0;whiteSpace=wrap;html=1;fontSize=20;fillColor=#dae8fc;strokeColor=#6c8ebf;" parent="1" vertex="1">
          <mxGeometry x="70" y="3000" width="160" height="120" as="geometry" />
        </mxCell>
        <mxCell id="mx_xu2pzDGoPMUuX7XrT-30" value="" style="endArrow=classic;html=1;rounded=0;fontSize=12;exitX=0;exitY=0.25;exitDx=0;exitDy=0;entryX=1;entryY=0.25;entryDx=0;entryDy=0;" parent="1" source="mx_xu2pzDGoPMUuX7XrT-25" target="mx_xu2pzDGoPMUuX7XrT-28" edge="1">
          <mxGeometry width="50" height="50" relative="1" as="geometry">
            <mxPoint x="1035" y="2830" as="sourcePoint" />
            <mxPoint x="825" y="2830" as="targetPoint" />
          </mxGeometry>
        </mxCell>
        <mxCell id="mx_xu2pzDGoPMUuX7XrT-31" value="&lt;b style=&quot;font-size: 16px;&quot;&gt;7.5 Send Consent Form&lt;/b&gt;" style="edgeLabel;html=1;align=center;verticalAlign=middle;resizable=0;points=[];fontSize=16;" parent="mx_xu2pzDGoPMUuX7XrT-30" vertex="1" connectable="0">
          <mxGeometry x="0.0217" y="1" relative="1" as="geometry">
            <mxPoint as="offset" />
          </mxGeometry>
        </mxCell>
        <mxCell id="mx_xu2pzDGoPMUuX7XrT-32" value="" style="endArrow=classic;startArrow=classic;html=1;rounded=0;fontSize=13;entryX=1;entryY=0.25;entryDx=0;entryDy=0;exitX=0;exitY=0.25;exitDx=0;exitDy=0;" parent="1" source="mx_xu2pzDGoPMUuX7XrT-28" target="mx_xu2pzDGoPMUuX7XrT-29" edge="1">
          <mxGeometry width="50" height="50" relative="1" as="geometry">
            <mxPoint x="930" y="1830" as="sourcePoint" />
            <mxPoint x="1125" y="1830" as="targetPoint" />
          </mxGeometry>
        </mxCell>
        <mxCell id="mx_xu2pzDGoPMUuX7XrT-33" value="&lt;b style=&quot;font-size: 16px;&quot;&gt;&lt;font style=&quot;font-size: 16px;&quot;&gt;7.6 Informed Consent&lt;/font&gt;&lt;/b&gt;" style="edgeLabel;html=1;align=center;verticalAlign=middle;resizable=0;points=[];fontSize=16;" parent="mx_xu2pzDGoPMUuX7XrT-32" vertex="1" connectable="0">
          <mxGeometry x="-0.0034" y="-1" relative="1" as="geometry">
            <mxPoint as="offset" />
          </mxGeometry>
        </mxCell>
        <mxCell id="mx_xu2pzDGoPMUuX7XrT-34" value="" style="endArrow=classic;html=1;rounded=0;fontSize=12;exitX=1;exitY=0.75;exitDx=0;exitDy=0;entryX=0;entryY=0.75;entryDx=0;entryDy=0;" parent="1" source="mx_xu2pzDGoPMUuX7XrT-28" target="mx_xu2pzDGoPMUuX7XrT-25" edge="1">
          <mxGeometry width="50" height="50" relative="1" as="geometry">
            <mxPoint x="871.96" y="1891.44" as="sourcePoint" />
            <mxPoint x="872.6100000000001" y="2008.44" as="targetPoint" />
          </mxGeometry>
        </mxCell>
        <mxCell id="mx_xu2pzDGoPMUuX7XrT-35" value="&lt;b style=&quot;font-size: 16px;&quot;&gt;7.7 Retrieval of&lt;br style=&quot;font-size: 16px;&quot;&gt;&amp;nbsp;Informed Consent&lt;/b&gt;" style="edgeLabel;html=1;align=center;verticalAlign=middle;resizable=0;points=[];fontSize=16;" parent="mx_xu2pzDGoPMUuX7XrT-34" vertex="1" connectable="0">
          <mxGeometry x="-0.5857" y="2" relative="1" as="geometry">
            <mxPoint x="60" y="2" as="offset" />
          </mxGeometry>
        </mxCell>
        <mxCell id="mx_xu2pzDGoPMUuX7XrT-36" value="" style="endArrow=classic;html=1;rounded=0;fontSize=12;exitX=1.001;exitY=0.339;exitDx=0;exitDy=0;exitPerimeter=0;entryX=0.001;entryY=0.433;entryDx=0;entryDy=0;entryPerimeter=0;" parent="1" source="mx_xu2pzDGoPMUuX7XrT-25" target="mx_xu2pzDGoPMUuX7XrT-19" edge="1">
          <mxGeometry width="50" height="50" relative="1" as="geometry">
            <mxPoint x="1230" y="3040" as="sourcePoint" />
            <mxPoint x="1380" y="3041" as="targetPoint" />
          </mxGeometry>
        </mxCell>
        <mxCell id="mx_xu2pzDGoPMUuX7XrT-37" value="&lt;b style=&quot;font-size: 16px&quot;&gt;7.8 Store informed &lt;br&gt;Consent&lt;br style=&quot;font-size: 16px&quot;&gt;&lt;/b&gt;" style="edgeLabel;html=1;align=center;verticalAlign=middle;resizable=0;points=[];fontSize=16;" parent="mx_xu2pzDGoPMUuX7XrT-36" vertex="1" connectable="0">
          <mxGeometry x="0.0114" relative="1" as="geometry">
            <mxPoint as="offset" />
          </mxGeometry>
        </mxCell>
        <mxCell id="mx_xu2pzDGoPMUuX7XrT-38" value="&lt;b style=&quot;font-size: 20px;&quot;&gt;5.3 Institution &lt;br style=&quot;font-size: 20px;&quot;&gt;Controller&lt;br style=&quot;font-size: 20px;&quot;&gt;&lt;/b&gt;" style="rounded=0;whiteSpace=wrap;html=1;fontSize=20;fillColor=#e1d5e7;strokeColor=#9673a6;" parent="1" vertex="1">
          <mxGeometry x="1010" y="3240" width="165" height="120" as="geometry" />
        </mxCell>
        <mxCell id="mx_xu2pzDGoPMUuX7XrT-39" value="&lt;b style=&quot;font-size: 20px;&quot;&gt;3. Institution&lt;br style=&quot;font-size: 20px;&quot;&gt;&lt;/b&gt;" style="rounded=0;whiteSpace=wrap;html=1;fontSize=20;fillColor=#dae8fc;strokeColor=#6c8ebf;" parent="1" vertex="1">
          <mxGeometry x="70" y="3240" width="160" height="120" as="geometry" />
        </mxCell>
        <mxCell id="mx_xu2pzDGoPMUuX7XrT-40" value="&lt;b style=&quot;font-size: 20px;&quot;&gt;4.3 &lt;br style=&quot;font-size: 20px;&quot;&gt;Institution Portal&lt;br style=&quot;font-size: 20px;&quot;&gt;&lt;/b&gt;" style="rounded=0;whiteSpace=wrap;html=1;fontSize=20;fillColor=#fff2cc;strokeColor=#d6b656;" parent="1" vertex="1">
          <mxGeometry x="550" y="3240" width="160" height="120" as="geometry" />
        </mxCell>
        <mxCell id="mx_xu2pzDGoPMUuX7XrT-41" value="" style="endArrow=classic;html=1;rounded=0;fontSize=12;exitX=0.5;exitY=1;exitDx=0;exitDy=0;entryX=0.5;entryY=0;entryDx=0;entryDy=0;" parent="1" source="mx_xu2pzDGoPMUuX7XrT-25" target="mx_xu2pzDGoPMUuX7XrT-38" edge="1">
          <mxGeometry width="50" height="50" relative="1" as="geometry">
            <mxPoint x="885" y="2070" as="sourcePoint" />
            <mxPoint x="1110" y="2070" as="targetPoint" />
          </mxGeometry>
        </mxCell>
        <mxCell id="mx_xu2pzDGoPMUuX7XrT-42" value="&lt;b style=&quot;font-size: 12px;&quot;&gt;7.9 Initialize Institution Request&lt;/b&gt;" style="edgeLabel;html=1;align=center;verticalAlign=middle;resizable=0;points=[];fontSize=12;" parent="mx_xu2pzDGoPMUuX7XrT-41" vertex="1" connectable="0">
          <mxGeometry x="0.0114" relative="1" as="geometry">
            <mxPoint as="offset" />
          </mxGeometry>
        </mxCell>
        <mxCell id="mx_xu2pzDGoPMUuX7XrT-43" value="" style="endArrow=classic;html=1;rounded=0;fontSize=12;entryX=1;entryY=0.25;entryDx=0;entryDy=0;exitX=0;exitY=0.25;exitDx=0;exitDy=0;" parent="1" source="mx_xu2pzDGoPMUuX7XrT-38" target="mx_xu2pzDGoPMUuX7XrT-40" edge="1">
          <mxGeometry width="50" height="50" relative="1" as="geometry">
            <mxPoint x="1000" y="3270" as="sourcePoint" />
            <mxPoint x="855" y="3270" as="targetPoint" />
            <Array as="points" />
          </mxGeometry>
        </mxCell>
        <mxCell id="mx_xu2pzDGoPMUuX7XrT-44" value="&lt;b style=&quot;font-size: 16px;&quot;&gt;&lt;font style=&quot;font-size: 16px;&quot;&gt;7.10 Send&lt;br style=&quot;font-size: 16px;&quot;&gt;&amp;nbsp;Institution Request&lt;/font&gt;&lt;/b&gt;" style="edgeLabel;html=1;align=center;verticalAlign=middle;resizable=0;points=[];fontSize=16;" parent="mx_xu2pzDGoPMUuX7XrT-43" vertex="1" connectable="0">
          <mxGeometry x="0.4942" y="-2" relative="1" as="geometry">
            <mxPoint x="46" as="offset" />
          </mxGeometry>
        </mxCell>
        <mxCell id="mx_xu2pzDGoPMUuX7XrT-45" value="&lt;b&gt;6.1.2 Institution Data&lt;br&gt;&lt;/b&gt;" style="rounded=0;whiteSpace=wrap;html=1;fontSize=16;fillColor=#d5e8d4;strokeColor=#82b366;" parent="1" vertex="1">
          <mxGeometry x="1470" y="3250" width="150" height="120" as="geometry" />
        </mxCell>
        <mxCell id="mx_xu2pzDGoPMUuX7XrT-46" value="" style="endArrow=classic;startArrow=classic;html=1;rounded=0;fontSize=13;entryX=0;entryY=0.25;entryDx=0;entryDy=0;exitX=1;exitY=0.25;exitDx=0;exitDy=0;" parent="1" source="mx_xu2pzDGoPMUuX7XrT-39" target="mx_xu2pzDGoPMUuX7XrT-40" edge="1">
          <mxGeometry width="50" height="50" relative="1" as="geometry">
            <mxPoint x="1519.8400000000001" y="1790.16" as="sourcePoint" />
            <mxPoint x="1709.0400000000004" y="1790.52" as="targetPoint" />
          </mxGeometry>
        </mxCell>
        <mxCell id="mx_xu2pzDGoPMUuX7XrT-47" value="&lt;b style=&quot;font-size: 16px;&quot;&gt;&lt;font style=&quot;font-size: 16px;&quot;&gt;7.11 Gather CH Credential&amp;nbsp;&lt;br style=&quot;font-size: 16px;&quot;&gt;Information&lt;br style=&quot;font-size: 16px;&quot;&gt;&lt;/font&gt;&lt;/b&gt;" style="edgeLabel;html=1;align=center;verticalAlign=middle;resizable=0;points=[];fontSize=16;" parent="mx_xu2pzDGoPMUuX7XrT-46" vertex="1" connectable="0">
          <mxGeometry x="-0.0034" y="-1" relative="1" as="geometry">
            <mxPoint as="offset" />
          </mxGeometry>
        </mxCell>
        <mxCell id="mx_xu2pzDGoPMUuX7XrT-48" value="" style="endArrow=classic;html=1;rounded=0;fontSize=12;exitX=1;exitY=0.583;exitDx=0;exitDy=0;exitPerimeter=0;entryX=-0.006;entryY=0.589;entryDx=0;entryDy=0;entryPerimeter=0;" parent="1" source="mx_xu2pzDGoPMUuX7XrT-40" target="mx_xu2pzDGoPMUuX7XrT-38" edge="1">
          <mxGeometry width="50" height="50" relative="1" as="geometry">
            <mxPoint x="815" y="3310" as="sourcePoint" />
            <mxPoint x="1000" y="3310" as="targetPoint" />
            <Array as="points" />
          </mxGeometry>
        </mxCell>
        <mxCell id="mx_xu2pzDGoPMUuX7XrT-49" value="&lt;b style=&quot;font-size: 16px&quot;&gt;7.12 Data Storage&lt;/b&gt;" style="edgeLabel;html=1;align=center;verticalAlign=middle;resizable=0;points=[];fontSize=16;" parent="mx_xu2pzDGoPMUuX7XrT-48" vertex="1" connectable="0">
          <mxGeometry x="0.4942" y="-2" relative="1" as="geometry">
            <mxPoint x="-56" as="offset" />
          </mxGeometry>
        </mxCell>
        <mxCell id="mx_xu2pzDGoPMUuX7XrT-50" value="" style="endArrow=classic;html=1;rounded=0;fontSize=12;entryX=0.005;entryY=0.769;entryDx=0;entryDy=0;entryPerimeter=0;exitX=1.005;exitY=0.163;exitDx=0;exitDy=0;exitPerimeter=0;" parent="1" source="mx_xu2pzDGoPMUuX7XrT-38" target="mx_xu2pzDGoPMUuX7XrT-19" edge="1">
          <mxGeometry width="50" height="50" relative="1" as="geometry">
            <mxPoint x="1230" y="3280" as="sourcePoint" />
            <mxPoint x="1169.63" y="2260.14" as="targetPoint" />
          </mxGeometry>
        </mxCell>
        <mxCell id="mx_xu2pzDGoPMUuX7XrT-51" value="&lt;b style=&quot;font-size: 16px;&quot;&gt;7.13 Store Data&lt;br style=&quot;font-size: 16px;&quot;&gt;&lt;/b&gt;" style="edgeLabel;html=1;align=center;verticalAlign=middle;resizable=0;points=[];fontSize=16;" parent="mx_xu2pzDGoPMUuX7XrT-50" vertex="1" connectable="0">
          <mxGeometry x="0.0114" relative="1" as="geometry">
            <mxPoint x="-3" y="-1" as="offset" />
          </mxGeometry>
        </mxCell>
        <mxCell id="mx_xu2pzDGoPMUuX7XrT-54" value="" style="endArrow=classic;html=1;rounded=0;fontSize=12;entryX=1;entryY=0.5;entryDx=0;entryDy=0;exitX=0.001;exitY=0.094;exitDx=0;exitDy=0;exitPerimeter=0;" parent="1" source="mx_xu2pzDGoPMUuX7XrT-19" target="mx_xu2pzDGoPMUuX7XrT-13" edge="1">
          <mxGeometry width="50" height="50" relative="1" as="geometry">
            <mxPoint x="1400" y="2850" as="sourcePoint" />
            <mxPoint x="492.5" y="2130" as="targetPoint" />
          </mxGeometry>
        </mxCell>
        <mxCell id="mx_xu2pzDGoPMUuX7XrT-55" value="&lt;b style=&quot;font-size: 16px;&quot;&gt;7.14.1 CH Verification&lt;/b&gt;" style="edgeLabel;html=1;align=center;verticalAlign=middle;resizable=0;points=[];fontSize=16;" parent="mx_xu2pzDGoPMUuX7XrT-54" vertex="1" connectable="0">
          <mxGeometry x="0.0114" relative="1" as="geometry">
            <mxPoint x="4" as="offset" />
          </mxGeometry>
        </mxCell>
        <mxCell id="mx_xu2pzDGoPMUuX7XrT-56" value="" style="endArrow=classic;html=1;rounded=0;fontSize=12;exitX=0.999;exitY=0.843;exitDx=0;exitDy=0;exitPerimeter=0;entryX=-0.005;entryY=0.154;entryDx=0;entryDy=0;entryPerimeter=0;" parent="1" source="mx_xu2pzDGoPMUuX7XrT-13" target="mx_xu2pzDGoPMUuX7XrT-19" edge="1">
          <mxGeometry width="50" height="50" relative="1" as="geometry">
            <mxPoint x="567.7399999999998" y="2129.2799999999997" as="sourcePoint" />
            <mxPoint x="568" y="2260" as="targetPoint" />
          </mxGeometry>
        </mxCell>
        <mxCell id="mx_xu2pzDGoPMUuX7XrT-57" value="&lt;b style=&quot;font-size: 16px&quot;&gt;7.17.2 Store Employer &lt;br&gt;Feedback&lt;br style=&quot;font-size: 16px&quot;&gt;&lt;/b&gt;" style="edgeLabel;html=1;align=center;verticalAlign=middle;resizable=0;points=[];fontSize=16;" parent="mx_xu2pzDGoPMUuX7XrT-56" vertex="1" connectable="0">
          <mxGeometry x="0.0114" relative="1" as="geometry">
            <mxPoint x="1" y="9" as="offset" />
          </mxGeometry>
        </mxCell>
        <mxCell id="mx_xu2pzDGoPMUuX7XrT-58" value="" style="endArrow=classic;html=1;rounded=0;fontSize=11;entryX=1.003;entryY=0.826;entryDx=0;entryDy=0;exitX=0;exitY=0.892;exitDx=0;exitDy=0;exitPerimeter=0;entryPerimeter=0;" parent="1" source="mx_xu2pzDGoPMUuX7XrT-19" target="mx_xu2pzDGoPMUuX7XrT-38" edge="1">
          <mxGeometry width="50" height="50" relative="1" as="geometry">
            <mxPoint x="1320" y="2980" as="sourcePoint" />
            <mxPoint x="1302.395" y="2130.12" as="targetPoint" />
          </mxGeometry>
        </mxCell>
        <mxCell id="mx_xu2pzDGoPMUuX7XrT-59" value="&lt;b style=&quot;font-size: 16px&quot;&gt;7.18.1&lt;br style=&quot;font-size: 16px&quot;&gt;Retrieve Analytics&lt;/b&gt;" style="edgeLabel;html=1;align=center;verticalAlign=middle;resizable=0;points=[];fontSize=16;" parent="mx_xu2pzDGoPMUuX7XrT-58" vertex="1" connectable="0">
          <mxGeometry x="0.5863" relative="1" as="geometry">
            <mxPoint x="76" y="1" as="offset" />
          </mxGeometry>
        </mxCell>
        <mxCell id="mx_xu2pzDGoPMUuX7XrT-60" value="" style="endArrow=classic;html=1;rounded=0;fontSize=11;exitX=-0.012;exitY=0.909;exitDx=0;exitDy=0;exitPerimeter=0;entryX=1.015;entryY=0.909;entryDx=0;entryDy=0;entryPerimeter=0;" parent="1" source="mx_xu2pzDGoPMUuX7XrT-38" target="mx_xu2pzDGoPMUuX7XrT-40" edge="1">
          <mxGeometry width="50" height="50" relative="1" as="geometry">
            <mxPoint x="995" y="3340" as="sourcePoint" />
            <mxPoint x="815" y="3349" as="targetPoint" />
          </mxGeometry>
        </mxCell>
        <mxCell id="mx_xu2pzDGoPMUuX7XrT-61" value="&lt;b style=&quot;font-size: 16px&quot;&gt;7.18.2&lt;br style=&quot;font-size: 16px&quot;&gt;Retrieve Analytics&lt;/b&gt;" style="edgeLabel;html=1;align=center;verticalAlign=middle;resizable=0;points=[];fontSize=16;" parent="mx_xu2pzDGoPMUuX7XrT-60" vertex="1" connectable="0">
          <mxGeometry x="0.5863" relative="1" as="geometry">
            <mxPoint x="66" y="6" as="offset" />
          </mxGeometry>
        </mxCell>
        <mxCell id="mx_xu2pzDGoPMUuX7XrT-62" value="" style="endArrow=classic;html=1;rounded=0;fontSize=10;exitX=0;exitY=0.75;exitDx=0;exitDy=0;entryX=1;entryY=0.75;entryDx=0;entryDy=0;" parent="1" source="mx_xu2pzDGoPMUuX7XrT-40" target="mx_xu2pzDGoPMUuX7XrT-39" edge="1">
          <mxGeometry width="50" height="50" relative="1" as="geometry">
            <mxPoint x="1520.7999999999997" y="1850.1599999999999" as="sourcePoint" />
            <mxPoint x="1709.04" y="1849.9199999999998" as="targetPoint" />
          </mxGeometry>
        </mxCell>
        <mxCell id="mx_xu2pzDGoPMUuX7XrT-63" value="&lt;b style=&quot;font-size: 16px&quot;&gt;7.19 View Data Analytics&lt;/b&gt;" style="edgeLabel;html=1;align=center;verticalAlign=middle;resizable=0;points=[];fontSize=16;" parent="mx_xu2pzDGoPMUuX7XrT-62" vertex="1" connectable="0">
          <mxGeometry x="-0.0589" relative="1" as="geometry">
            <mxPoint as="offset" />
          </mxGeometry>
        </mxCell>
        <mxCell id="mx_xu2pzDGoPMUuX7XrT-64" value="&lt;b&gt;&lt;br&gt;&lt;/b&gt;" style="rounded=0;whiteSpace=wrap;html=1;fontSize=16;fillColor=#d5e8d4;strokeColor=#82b366;" parent="1" vertex="1">
          <mxGeometry x="1725" y="2760" width="165" height="650" as="geometry" />
        </mxCell>
        <mxCell id="mx_xu2pzDGoPMUuX7XrT-65" value="&lt;font style=&quot;font-size: 20px&quot;&gt;&lt;b&gt;6.2 Provenance Database&lt;/b&gt;&lt;/font&gt;" style="text;html=1;strokeColor=none;fillColor=none;align=center;verticalAlign=middle;whiteSpace=wrap;rounded=0;fontSize=10;" parent="1" vertex="1">
          <mxGeometry x="1712.5" y="2720" width="190" height="30" as="geometry" />
        </mxCell>
        <mxCell id="mx_xu2pzDGoPMUuX7XrT-66" value="" style="endArrow=classic;startArrow=classic;html=1;rounded=0;exitX=0;exitY=0.5;exitDx=0;exitDy=0;entryX=1;entryY=0.5;entryDx=0;entryDy=0;" parent="1" source="mx_xu2pzDGoPMUuX7XrT-64" target="mx_xu2pzDGoPMUuX7XrT-19" edge="1">
          <mxGeometry width="50" height="50" relative="1" as="geometry">
            <mxPoint x="928.9800000000005" y="2493.76" as="sourcePoint" />
            <mxPoint x="929.1700000000001" y="2401.4" as="targetPoint" />
          </mxGeometry>
        </mxCell>
        <mxCell id="mx_xu2pzDGoPMUuX7XrT-67" value="" style="whiteSpace=wrap;html=1;aspect=fixed;fillColor=#dae8fc;strokeColor=#6c8ebf;" parent="1" vertex="1">
          <mxGeometry x="1950" y="3205" width="40" height="40" as="geometry" />
        </mxCell>
        <mxCell id="mx_xu2pzDGoPMUuX7XrT-68" value="User Type" style="text;html=1;strokeColor=none;fillColor=none;align=center;verticalAlign=middle;whiteSpace=wrap;rounded=0;fontStyle=1;fontSize=20;" parent="1" vertex="1">
          <mxGeometry x="2000" y="3210" width="100" height="30" as="geometry" />
        </mxCell>
        <mxCell id="mx_xu2pzDGoPMUuX7XrT-69" value="" style="whiteSpace=wrap;html=1;aspect=fixed;fillColor=#fff2cc;strokeColor=#d6b656;" parent="1" vertex="1">
          <mxGeometry x="1950" y="3255" width="40" height="40" as="geometry" />
        </mxCell>
        <mxCell id="mx_xu2pzDGoPMUuX7XrT-70" value="Front-End Client" style="text;html=1;strokeColor=none;fillColor=none;align=center;verticalAlign=middle;whiteSpace=wrap;rounded=0;fontStyle=1;fontSize=20;" parent="1" vertex="1">
          <mxGeometry x="2000" y="3265" width="160" height="30" as="geometry" />
        </mxCell>
        <mxCell id="mx_xu2pzDGoPMUuX7XrT-71" value="" style="whiteSpace=wrap;html=1;aspect=fixed;fillColor=#e1d5e7;strokeColor=#9673a6;" parent="1" vertex="1">
          <mxGeometry x="1950" y="3305" width="40" height="40" as="geometry" />
        </mxCell>
        <mxCell id="mx_xu2pzDGoPMUuX7XrT-72" value="Server Controller" style="text;html=1;strokeColor=none;fillColor=none;align=center;verticalAlign=middle;whiteSpace=wrap;rounded=0;fontStyle=1;fontSize=20;" parent="1" vertex="1">
          <mxGeometry x="2000" y="3310" width="170" height="30" as="geometry" />
        </mxCell>
        <mxCell id="mx_xu2pzDGoPMUuX7XrT-73" value="" style="whiteSpace=wrap;html=1;aspect=fixed;fillColor=#d5e8d4;strokeColor=#82b366;" parent="1" vertex="1">
          <mxGeometry x="1950" y="3355" width="40" height="40" as="geometry" />
        </mxCell>
        <mxCell id="mx_xu2pzDGoPMUuX7XrT-74" value="Database" style="text;html=1;strokeColor=none;fillColor=none;align=center;verticalAlign=middle;whiteSpace=wrap;rounded=0;fontStyle=1;fontSize=20;" parent="1" vertex="1">
          <mxGeometry x="2020" y="3360" width="60" height="30" as="geometry" />
        </mxCell>
      </root>
    </mxGraphModel>
  </diagram>
</mxfile>
